<svg width="32" height="32" viewBox="0 0 32 32" fill="none" xmlns="http://www.w3.org/2000/svg">
<path d="M28.7677 5.24627H23.7037L20.7946 2H11.2054L8.29629 5.24627H3.23232C1.50842 5.24627 0 6.65299 0 8.49254V27.7537C0 29.4851 1.40067 31 3.23232 31H28.7677C30.4916 31 32 29.5933 32 27.7537V8.38433C32 6.65299 30.5993 5.24627 28.7677 5.24627ZM28.7677 27.6455H3.34007V8.38433H9.80471L12.7138 5.13806H19.5017L22.303 8.38433H28.7677V27.6455ZM16.0539 10.0075C11.6364 10.0075 8.08081 13.5784 8.08081 18.0149C8.08081 22.4515 11.6364 26.0224 16.0539 26.0224C20.4714 26.0224 24.0269 22.4515 24.0269 18.0149C24.0269 13.5784 20.4714 10.0075 16.0539 10.0075ZM16.0539 22.8843C13.468 22.8843 11.3131 20.7201 11.3131 18.1231C11.3131 15.5261 13.468 13.3619 16.0539 13.3619C18.6397 13.3619 20.7946 15.5261 20.7946 18.1231C20.7946 20.7201 18.6397 22.8843 16.0539 22.8843Z" fill="#911C1C"/>
</svg>
